<svg width="40" height="40" viewBox="0 0 40 40" fill="none" xmlns="http://www.w3.org/2000/svg">
<path d="M20 0C8.95546 0 0 8.9541 0 20C0 31.0459 8.95458 40 20 40C31.0463 40 40 31.0459 40 20C40 8.9541 31.0463 0 20 0ZM20 5.98023C21.7544 5.98012 23.4371 6.67698 24.6777 7.91753C25.9184 9.15808 26.6154 10.8407 26.6156 12.5952C26.6157 14.3497 25.9188 16.0324 24.6784 17.2731C23.4379 18.5139 21.7553 19.211 20.0009 19.2111C18.2464 19.2112 16.5638 18.5143 15.3231 17.2738C14.0825 16.0332 13.3854 14.3506 13.3853 12.5961C13.3852 10.8416 14.082 9.15887 15.3225 7.91815C16.563 6.67744 18.2456 5.98035 20 5.98023ZM19.9956 34.7709C16.491 34.7748 13.1006 33.5246 10.4375 31.2462C10.1276 30.9817 9.87866 30.6532 9.7079 30.2833C9.53713 29.9134 9.44856 29.5109 9.4483 29.1034C9.4483 25.3986 12.4466 22.4336 16.1522 22.4336H23.8496C27.556 22.4336 30.5429 25.3986 30.5429 29.1034C30.5432 29.5107 30.4549 29.9132 30.2843 30.2831C30.1136 30.6529 29.8646 30.9812 29.5546 31.2453C26.8916 33.5246 23.5007 34.7753 19.9956 34.7709Z" fill="#202833"/>
</svg>
